<svg xmlns="http://www.w3.org/2000/svg" width="24" height="24" fill="none" viewBox="0 0 24 24"><g clip-path="url(#clip0)"><rect width="16" height="5" x="2" y="2" fill="#DDE3E8" rx=".5"/><rect width="16" height="5" x="2" y="17" fill="#DDE3E8" rx=".5"/><rect width="16" height="6" x="6" y="9" fill="#FBCD2C" rx=".5"/><path fill="#fff" fill-rule="evenodd" d="M12.5 10.7929C12.5 9.90199 13.5771 9.45582 14.2071 10.0858L22.9142 18.7929C23.5442 19.4229 23.098 20.5 22.2071 20.5H18.2488C17.6797 20.5 17.1376 20.7424 16.7581 21.1666L14.2453 23.9756C13.6333 24.6598 12.5 24.2268 12.5 23.3089V10.7929ZM16.6837 19H21L14 12V22L16.6837 19Z" clip-rule="evenodd"/><path fill="#324350" d="M14 22V12L21 19H16.6837L14 22Z"/></g><defs><clipPath id="clip0"><rect width="24" height="24" fill="#fff"/></clipPath></defs></svg>