<svg xmlns="http://www.w3.org/2000/svg" width="24" height="24" fill="none" viewBox="0 0 24 24"><g clip-path="url(#clip0)"><rect width="16" height="19" x="3.181" y="3.881" fill="#FF7D95" rx="2" transform="rotate(-6 3.18147 3.88142)"/><rect width="12" height="15" x="5.38" y="5.661" fill="#fff" rx="1" transform="rotate(-6 5.37958 5.66141)"/><path fill="#AAB2BF" fill-rule="evenodd" d="M12.5249 1.89388L14.0167 1.73709C14.5659 1.67936 15.058 2.07782 15.1157 2.62708L15.4293 5.61065L7.47315 6.44688L7.15956 3.46331C7.10183 2.91405 7.50029 2.42199 8.04955 2.36426L9.54134 2.20747C9.45474 1.38358 10.0524 0.645485 10.8763 0.558891C11.7002 0.472297 12.4383 1.06999 12.5249 1.89388Z" clip-rule="evenodd"/><rect width="8" height="2" x="7.682" y="8.436" fill="#DDE3E8" transform="rotate(-6 7.68221 8.43592)"/><rect width="8" height="2" x="8.1" y="12.414" fill="#DDE3E8" transform="rotate(-6 8.10031 12.414)"/><rect width="3.35" height="2" x="8.518" y="16.392" fill="#DDE3E8" transform="rotate(-6 8.51843 16.3921)"/><path fill="#6A6F7F" d="M20.0336 9.94762L15.1077 14.9076C15.0165 14.9977 14.9448 15.1053 14.8969 15.2237L14.0353 17.3532C13.8798 17.7375 14.2655 18.1188 14.6542 17.9651L16.8082 17.1133C16.9279 17.0659 17.0367 16.995 17.1279 16.9049L22.0538 11.9449L20.0336 9.94762Z"/><path fill="#6A6F7F" d="M22.0538 11.9449L22.7211 11.2731C23.093 10.9054 23.093 10.3092 22.7211 9.94153L22.0477 9.27577C21.6758 8.90808 21.0728 8.90808 20.7009 9.27577L20.0336 9.94762L22.0538 11.9449Z"/></g><defs><clipPath id="clip0"><rect width="24" height="24" fill="#fff"/></clipPath></defs></svg>