<svg xmlns="http://www.w3.org/2000/svg" width="24" height="24" fill="none" viewBox="0 0 24 24"><rect width="18.5" height="18.5" x="2.75" y="2.75" fill="#fff" stroke="#AAB2BF" stroke-width="1.5" rx="3"/><path fill="#6A6F7F" d="M16 2H19C20.6569 2 22 3.34315 22 5V19C22 20.6569 20.6569 22 19 22H16V2Z"/><rect width="12.5" height="5" x="3.5" y="7" fill="#4CC3FA"/><path fill="#DDE3E8" d="M3.5 17H16V20.5H5.5C4.39543 20.5 3.5 19.6046 3.5 18.5V17Z"/><path fill="#AAB2BF" d="M18.9991 4L20.2981 6.25H17.7L18.9991 4Z"/><path fill="#AAB2BF" d="M18.999 20.25L17.7 18H20.2981L18.999 20.25Z"/><rect width="2" height="6" x="18" y="8" fill="#DDE3E8" rx="1"/></svg>