<svg xmlns="http://www.w3.org/2000/svg" width="24" height="24" fill="none" viewBox="0 0 24 24"><path fill="#DDE3E8" d="M2.72361 5.44721C2.39116 4.78231 2.87465 4 3.61803 4H20.382C21.1253 4 21.6088 4.78231 21.2764 5.44721L18 12H6L2.72361 5.44721Z"/><path fill="#6A6F7F" d="M2.72361 18.5528C2.39116 19.2177 2.87465 20 3.61803 20H20.382C21.1253 20 21.6088 19.2177 21.2764 18.5528L18 12H6L2.72361 18.5528Z"/><path stroke="#4CC3FA" stroke-linecap="round" stroke-width="2" d="M12 2V10"/><path stroke="#4CC3FA" stroke-linecap="round" stroke-linejoin="round" stroke-width="2" d="M9 7L12 10L15 7"/><path stroke="#4CC3FA" stroke-linecap="round" stroke-width="2" d="M12 22V14"/><path stroke="#4CC3FA" stroke-linecap="round" stroke-linejoin="round" stroke-width="2" d="M9 17L12 14L15 17"/></svg>