<svg xmlns="http://www.w3.org/2000/svg" width="24" height="24" fill="none" viewBox="0 0 24 24"><path fill="#6A6F7F" fill-rule="evenodd" d="M22 2H2V22H22V2ZM20 4H4V20H20V4Z" clip-rule="evenodd"/><path fill="#DDE3E8" fill-rule="evenodd" d="M22 9H20V15H22V9ZM2 15H4V9H2V15Z" clip-rule="evenodd"/><path fill="#DDE3E8" fill-rule="evenodd" d="M15 22V20H9V22H15ZM9 2V4H15V2H9Z" clip-rule="evenodd"/><rect width="3" height="3" x="7" y="7" fill="#6A6F7F"/><rect width="3" height="4" x="7" y="10" fill="#DDE3E8"/><rect width="3" height="4" x="14" y="10" fill="#DDE3E8"/><rect width="4" height="3" x="10" y="7" fill="#DDE3E8"/><rect width="4" height="3" x="10" y="14" fill="#DDE3E8"/><rect width="3" height="3" x="14" y="7" fill="#6A6F7F"/><rect width="3" height="3" x="7" y="14" fill="#6A6F7F"/><rect width="3" height="3" x="14" y="14" fill="#6A6F7F"/></svg>