<svg xmlns="http://www.w3.org/2000/svg" width="24" height="24" fill="none" viewBox="0 0 24 24"><path fill="#AAB2BF" d="M5.44134 9.08345C5.78441 8.41807 6.47035 8 7.21896 8H16.7804C17.5293 8 18.2155 8.4184 18.5584 9.08417L21.9336 15.6367L2.12891 15.5078L5.44134 9.08345Z"/><path fill="#6A6F7F" d="M6.72999 11.3166C6.89478 10.9658 7.2475 10.7417 7.63513 10.7417H16.3649C16.7525 10.7417 17.1052 10.9657 17.27 11.3166L19 14.9999H5L6.72999 11.3166Z"/><path fill="#DDE3E8" d="M2 16C2 15.4477 2.44772 15 3 15H21C21.5523 15 22 15.4477 22 16V21C22 21.5523 21.5523 22 21 22H3C2.44772 22 2 21.5523 2 21V16Z"/><rect width="2" height="5" x="11" y="1" fill="#AAB2BF" rx="1"/><rect width="2" height="4.345" x="3.879" y="4.293" fill="#AAB2BF" rx="1" transform="rotate(-45 3.87866 4.29285)"/><rect width="2" height="4.218" x="18.573" y="2.879" fill="#AAB2BF" rx="1" transform="rotate(45 18.5731 2.87866)"/><circle cx="12" cy="18.5" r="1.5" fill="#AAB2BF"/></svg>