<svg xmlns="http://www.w3.org/2000/svg" width="24" height="24" fill="none" viewBox="0 0 24 24"><path stroke="#AAB2BF" stroke-linecap="round" stroke-width="2" d="M12 8.5C12 8.5 12.5 6 11 4C9.5 2 8 2 8 2"/><rect width="22" height="15" x="1" y="6" fill="#DDE3E8" rx="2"/><rect width="3" height="3" x="3" y="8" fill="#6A6F7F" rx="1.5"/><rect width="3" height="3" x="8" y="8" fill="#6A6F7F" rx="1.5"/><rect width="3" height="3" x="13" y="8" fill="#6A6F7F" rx="1.5"/><rect width="3" height="3" x="18" y="8" fill="#6A6F7F" rx="1.5"/><rect width="3" height="3" x="3" y="12" fill="#6A6F7F" rx="1.5"/><rect width="3" height="3" x="8" y="12" fill="#6A6F7F" rx="1.5"/><rect width="3" height="3" x="13" y="12" fill="#6A6F7F" rx="1.5"/><rect width="3" height="3" x="18" y="12" fill="#6A6F7F" rx="1.5"/><rect width="12" height="2" x="6" y="17" fill="#6A6F7F" rx="1"/></svg>